<svg xmlns="http://www.w3.org/2000/svg" xmlns:xlink="http://www.w3.org/1999/xlink" viewBox="0 0 100 100"><polygon fill="#fefdef" points="13,40 13,83 87,83 86.999,40 50,21"/><path fill="#8789b9" d="M76.5,82.5h-53v-37c0-1.657,1.343-3,3-3h47c1.657,0,3,1.343,3,3V82.5z"/><path fill="#cdcbbd" d="M76.5,50.5h-53v-5c0-1.657,1.343-3,3-3h47c1.657,0,3,1.343,3,3V50.5z"/><path fill="#78cdd4" d="M54.5,37.5h-9c-0.552,0-1-0.448-1-1v-3c0-0.552,0.448-1,1-1h9c0.552,0,1,0.448,1,1v3 C55.5,37.052,55.052,37.5,54.5,37.5z"/><polygon fill="#ceccbe" points="87,39.951 50,21 13,39.951 13,44.951 50,26 87,44.951"/><polygon fill="#f15b6c" points="50,11 91,32 91,42 50,21 9,42 9,32"/><path fill="#fcba7f" d="M70.5,65.5v14c0,1.657-1.343,3-3,3H53c-1.657,0-3-1.343-3-3v-14c0-1.657,1.343-3,3-3h14.5 C69.157,62.5,70.5,63.843,70.5,65.5z"/><path fill="#fcba7f" d="M50,65.5v14c0,1.657-1.343,3-3,3H32.5c-1.657,0-3-1.343-3-3v-14c0-1.657,1.343-3,3-3H47 C48.657,62.5,50,63.843,50,65.5z"/><g><path fill="#1f212b" d="M54.5,38h-9c-0.827,0-1.5-0.673-1.5-1.5v-3c0-0.827,0.673-1.5,1.5-1.5h9c0.827,0,1.5,0.673,1.5,1.5 v3C56,37.327,55.327,38,54.5,38z M45.5,33c-0.276,0-0.5,0.224-0.5,0.5v3c0,0.276,0.224,0.5,0.5,0.5h9c0.276,0,0.5-0.224,0.5-0.5v-3 c0-0.276-0.224-0.5-0.5-0.5H45.5z"/><path fill="#1f212b" d="M91,43c-0.156,0-0.313-0.037-0.456-0.11L50,22.124L9.456,42.89c-0.31,0.159-0.68,0.145-0.978-0.037 C8.181,42.671,8,42.348,8,42V32c0-0.375,0.21-0.719,0.544-0.89l41-21c0.286-0.146,0.626-0.146,0.912,0l41,21 C91.79,31.281,92,31.625,92,32v10c0,0.348-0.181,0.671-0.479,0.853C91.362,42.951,91.181,43,91,43z M50,20 c0.156,0,0.313,0.037,0.456,0.11L90,40.364v-7.753L50,12.124L10,32.611v7.753L49.544,20.11C49.687,20.037,49.844,20,50,20z"/><path fill="#1f212b" d="M87,84H13c-0.552,0-1-0.448-1-1V40h2v42h72V40h2l0,43c0,0.265-0.105,0.52-0.293,0.707 S87.265,84,87,84z"/><path fill="#1f212b" d="M76.5,83h-53c-0.276,0-0.5-0.224-0.5-0.5v-37c0-1.93,1.57-3.5,3.5-3.5h47c1.93,0,3.5,1.57,3.5,3.5 v37C77,82.776,76.776,83,76.5,83z M24,82h52V45.5c0-1.378-1.122-2.5-2.5-2.5h-47c-1.378,0-2.5,1.122-2.5,2.5V82z"/><path fill="#1f212b" d="M76.5,51h-53c-0.276,0-0.5-0.224-0.5-0.5s0.224-0.5,0.5-0.5h53c0.276,0,0.5,0.224,0.5,0.5 S76.776,51,76.5,51z"/><path fill="#1f212b" d="M52.5,47h-5c-0.276,0-0.5-0.224-0.5-0.5s0.224-0.5,0.5-0.5h5c0.276,0,0.5,0.224,0.5,0.5 S52.776,47,52.5,47z"/><path fill="#1f212b" d="M67.5,83H53c-1.93,0-3.5-1.57-3.5-3.5v-14c0-1.93,1.57-3.5,3.5-3.5h14.5c1.93,0,3.5,1.57,3.5,3.5v14 C71,81.43,69.43,83,67.5,83z M53,63c-1.378,0-2.5,1.122-2.5,2.5v14c0,1.378,1.122,2.5,2.5,2.5h14.5c1.378,0,2.5-1.122,2.5-2.5v-14 c0-1.378-1.122-2.5-2.5-2.5H53z"/><path fill="#1f212b" d="M47,83H32.5c-1.93,0-3.5-1.57-3.5-3.5v-14c0-1.93,1.57-3.5,3.5-3.5H47c1.93,0,3.5,1.57,3.5,3.5v14 C50.5,81.43,48.93,83,47,83z M32.5,63c-1.378,0-2.5,1.122-2.5,2.5v14c0,1.378,1.122,2.5,2.5,2.5H47c1.378,0,2.5-1.122,2.5-2.5v-14 c0-1.378-1.122-2.5-2.5-2.5H32.5z"/><path fill="#1f212b" d="M64,69h-7c-0.552,0-1-0.448-1-1s0.448-1,1-1h7c0.552,0,1,0.448,1,1S64.552,69,64,69z"/><path fill="#1f212b" d="M43,69h-7c-0.552,0-1-0.448-1-1s0.448-1,1-1h7c0.552,0,1,0.448,1,1S43.552,69,43,69z"/><path fill="#1f212b" d="M53,82.5c-1.657,0-3-1.343-3-3c0,1.657-1.343,3-3,3H53z"/></g></svg>