<svg xmlns="http://www.w3.org/2000/svg" xmlns:xlink="http://www.w3.org/1999/xlink" viewBox="0 0 100 100"><path fill="#ee3e54" d="M13 27A2 2 0 1 0 13 31A2 2 0 1 0 13 27Z"/><path fill="#f1bc19" d="M77 12A1 1 0 1 0 77 14A1 1 0 1 0 77 12Z"/><path fill="#fce0a2" d="M50 13A37 37 0 1 0 50 87A37 37 0 1 0 50 13Z"/><path fill="#f1bc19" d="M83 11A4 4 0 1 0 83 19A4 4 0 1 0 83 11Z"/><path fill="#ee3e54" d="M87 22A2 2 0 1 0 87 26A2 2 0 1 0 87 22Z"/><path fill="#fbcd59" d="M81 74A2 2 0 1 0 81 78 2 2 0 1 0 81 74zM15 59A4 4 0 1 0 15 67 4 4 0 1 0 15 59z"/><path fill="#ee3e54" d="M25 85A2 2 0 1 0 25 89A2 2 0 1 0 25 85Z"/><path fill="#fff" d="M18.5 51A2.5 2.5 0 1 0 18.5 56A2.5 2.5 0 1 0 18.5 51Z"/><path fill="#f1bc19" d="M21 66A1 1 0 1 0 21 68A1 1 0 1 0 21 66Z"/><path fill="#fff" d="M80 33A1 1 0 1 0 80 35A1 1 0 1 0 80 33Z"/><path fill="#f37e98" d="M75.463,31.226l-17.302-2.58c-0.27-0.045-0.548-0.019-0.806,0.069 c-4.264,1.456-11.445,1.61-15.514,0.032c-0.277-0.107-0.58-0.145-0.874-0.096L24.54,31.228c-0.86,0.144-1.449,0.92-1.333,1.758 l1.577,11.465c0.119,0.867,0.945,1.473,1.838,1.35l4.236-0.045c0.978-0.135,1.853,0.6,1.853,1.557V73.76 c0,0.869,0.727,1.573,1.623,1.573h31.419c0.896,0,1.623-0.704,1.623-1.573V47.314c0-0.957,0.875-1.693,1.853-1.557l4.151,0.045 c0.893,0.124,1.719-0.483,1.838-1.35l1.577-11.467C76.909,32.147,76.322,31.371,75.463,31.226z"/><path fill="#472b29" d="M65.752,76.033H34.333c-1.281,0-2.323-1.02-2.323-2.273V47.313c0-0.246-0.105-0.475-0.297-0.642 c-0.206-0.179-0.482-0.263-0.76-0.223l-4.324,0.052c-0.539,0.082-1.159-0.08-1.659-0.46c-0.486-0.367-0.799-0.898-0.88-1.494 l-1.577-11.464c-0.167-1.221,0.672-2.338,1.912-2.545l16.434-2.577c0.405-0.068,0.833-0.021,1.235,0.135 c3.722,1.444,10.748,1.424,15.035-0.042c0.374-0.128,0.771-0.16,1.148-0.098l17.29,2.578c0.004,0.001,0.009,0.001,0.013,0.002 c1.238,0.208,2.076,1.326,1.908,2.544L75.91,44.547c-0.082,0.596-0.395,1.127-0.88,1.494c-0.5,0.38-1.119,0.545-1.748,0.453 l-4.062-0.038c-0.363-0.045-0.641,0.035-0.847,0.216c-0.192,0.167-0.297,0.396-0.297,0.642V73.76 C68.075,75.014,67.033,76.033,65.752,76.033z M31.125,45.036c0.519,0,1.074,0.203,1.508,0.58c0.494,0.431,0.778,1.05,0.778,1.697 V73.76c0,0.481,0.414,0.873,0.923,0.873h31.418c0.509,0,0.923-0.392,0.923-0.873V47.313c0-0.647,0.284-1.267,0.778-1.697 c0.511-0.445,1.192-0.646,1.871-0.554l4.063,0.038c0.344,0.043,0.597-0.021,0.798-0.176c0.188-0.142,0.308-0.344,0.339-0.569 l1.578-11.467c0.063-0.461-0.265-0.887-0.748-0.971l-17.294-2.579c-0.164-0.025-0.323-0.014-0.478,0.04 c-4.624,1.58-11.949,1.591-15.993,0.021c-0.168-0.063-0.344-0.086-0.506-0.058L24.648,31.92c-0.48,0.08-0.812,0.508-0.749,0.972 l1.577,11.464c0.031,0.226,0.151,0.428,0.339,0.569c0.201,0.153,0.449,0.218,0.71,0.183l4.324-0.052 C30.94,45.043,31.032,45.036,31.125,45.036z"/><g><path fill="#f15b6c" d="M41.75,28.708V29.8c0,3.816,3.694,6.909,8.25,6.909s8.25-3.093,8.25-6.909v-1.091 C54.444,30.264,45.163,30.264,41.75,28.708z"/><path fill="#472b29" d="M50,37.408c-4.935,0-8.95-3.413-8.95-7.608v-1.091c0-0.238,0.121-0.46,0.321-0.589 c0.201-0.127,0.454-0.145,0.669-0.048c3.236,1.473,12.326,1.467,15.945-0.012c0.214-0.087,0.462-0.063,0.655,0.067 c0.194,0.13,0.31,0.348,0.31,0.581V29.8C58.95,33.995,54.935,37.408,50,37.408z M42.45,29.715V29.8c0,3.423,3.387,6.208,7.55,6.208 s7.55-2.785,7.55-6.208v-0.108C53.53,30.88,46.246,30.888,42.45,29.715z"/></g><g><path fill="#472b29" d="M68.324,46.348c-0.004,0-0.009,0-0.013,0c-0.138-0.008-0.244-0.125-0.236-0.264l0.465-8.773 c0.007-0.138,0.122-0.229,0.263-0.236c0.138,0.008,0.244,0.125,0.236,0.264l-0.465,8.773 C68.566,46.244,68.456,46.348,68.324,46.348z"/></g><g><path fill="#472b29" d="M68.892,35.625c-0.004,0-0.009,0-0.013,0c-0.138-0.008-0.244-0.125-0.236-0.264l0.151-2.85 c0.007-0.138,0.126-0.229,0.263-0.236c0.138,0.008,0.244,0.125,0.236,0.264l-0.151,2.85C69.135,35.521,69.024,35.625,68.892,35.625 z"/></g><g><path fill="#472b29" d="M59.575,72.688h-5.283c-0.138,0-0.25-0.112-0.25-0.25s0.112-0.25,0.25-0.25h5.283 c0.138,0,0.25,0.112,0.25,0.25S59.713,72.688,59.575,72.688z"/></g><g><path fill="#472b29" d="M51.989,72.688H33.5c-0.138,0-0.25-0.112-0.25-0.25s0.112-0.25,0.25-0.25h18.489 c0.138,0,0.25,0.112,0.25,0.25S52.127,72.688,51.989,72.688z"/></g><g><path fill="#472b29" d="M66.167,72.688h-2.393c-0.138,0-0.25-0.112-0.25-0.25s0.112-0.25,0.25-0.25h2.393 c0.138,0,0.25,0.112,0.25,0.25S66.305,72.688,66.167,72.688z"/></g><g><path fill="#472b29" d="M62.464,72.688h-1.716c-0.138,0-0.25-0.112-0.25-0.25s0.112-0.25,0.25-0.25h1.716 c0.138,0,0.25,0.112,0.25,0.25S62.603,72.688,62.464,72.688z"/></g><g><path fill="#472b29" d="M31.868,46.471c-0.132,0-0.242-0.103-0.25-0.236l-0.271-4.867c-0.008-0.138,0.098-0.256,0.235-0.264 c0.152,0.001,0.256,0.099,0.264,0.236l0.271,4.867c0.008,0.138-0.098,0.256-0.235,0.264C31.877,46.471,31.872,46.471,31.868,46.471 z"/></g><g><path fill="#472b29" d="M31.297,36.776c-0.132,0-0.242-0.103-0.25-0.236l-0.255-4.568c-0.008-0.138,0.098-0.256,0.235-0.264 c0.162,0.012,0.256,0.099,0.264,0.236l0.255,4.568c0.008,0.138-0.098,0.256-0.235,0.264C31.306,36.776,31.301,36.776,31.297,36.776 z"/></g><g><path fill="#472b29" d="M31.494,40.021c-0.132,0-0.242-0.103-0.25-0.236l-0.088-1.581c-0.008-0.138,0.098-0.256,0.235-0.264 c0.161,0.016,0.256,0.099,0.264,0.236l0.088,1.581c0.008,0.138-0.098,0.256-0.235,0.264C31.503,40.021,31.499,40.021,31.494,40.021 z"/></g></svg>