<svg xmlns="http://www.w3.org/2000/svg" xmlns:xlink="http://www.w3.org/1999/xlink" viewBox="0 0 100 100"><path fill="#f1bc19" d="M77 12A1 1 0 1 0 77 14A1 1 0 1 0 77 12Z"/><path fill="#e6edb7" d="M50 13A37 37 0 1 0 50 87A37 37 0 1 0 50 13Z"/><path fill="#f1bc19" d="M83 11A4 4 0 1 0 83 19A4 4 0 1 0 83 11Z"/><path fill="#88ae45" d="M87 22A2 2 0 1 0 87 26A2 2 0 1 0 87 22Z"/><path fill="#fbcd59" d="M81 74A2 2 0 1 0 81 78 2 2 0 1 0 81 74zM15 59A4 4 0 1 0 15 67 4 4 0 1 0 15 59z"/><path fill="#88ae45" d="M25 85A2 2 0 1 0 25 89A2 2 0 1 0 25 85Z"/><path fill="#fff" d="M18.5 49A2.5 2.5 0 1 0 18.5 54 2.5 2.5 0 1 0 18.5 49zM79.5 32A1.5 1.5 0 1 0 79.5 35 1.5 1.5 0 1 0 79.5 32z"/><path fill="#7c8ca3" d="M60.25,62.035c-0.946,0-1.55-0.436-1.55-0.663V31.364c0-0.229,0.604-0.664,1.55-0.664h0.5 c0.946,0,1.55,0.436,1.55,0.664v30.008c0,0.228-0.604,0.663-1.55,0.663H60.25z"/><path fill="#472b29" d="M60.75,31.4c0.409,0,0.705,0.105,0.85,0.188v29.559c-0.145,0.083-0.441,0.188-0.85,0.188h-0.5 c-0.409,0-0.705-0.105-0.85-0.188V31.589c0.145-0.084,0.441-0.188,0.85-0.188H60.75 M60.75,30h-0.5C59.012,30,58,30.614,58,31.364 v30.008c0,0.75,1.012,1.364,2.25,1.364h0.5c1.238,0,2.25-0.613,2.25-1.364V31.364C63,30.614,61.988,30,60.75,30L60.75,30z"/><g><path fill="#8f9eb6" d="M43.447,72.3c-1.961,0-3.747-1.625-3.747-3.409V44.635l-0.418-0.185 c-3.294-1.452-5.43-4.717-5.575-8.52c-0.149-3.92,2.64-7.159,5.592-8.803v7.523c0,1.599,1.199,3.828,3.15,3.828l2.101-0.001 c1.951,0,3.149-2.229,3.149-3.828v-7.523c2.854,1.591,5.601,4.693,5.6,8.428c0.001,3.994-2.137,7.404-5.579,8.901L47.3,44.639 v24.252c0,1.784-1.785,3.409-3.745,3.409H43.447z"/><path fill="#472b29" d="M48.4,28.393c2.261,1.596,4.2,4.164,4.2,7.162c0.001,3.711-1.976,6.875-5.158,8.258L46.6,44.179 v0.918v23.793c0,1.418-1.452,2.709-3.045,2.709h-0.108c-1.594,0-3.047-1.291-3.047-2.709v-23.8v-0.913l-0.835-0.368 c-3.047-1.344-5.024-4.374-5.158-7.906c-0.12-3.162,1.853-5.856,4.193-7.511v6.259c0,2.141,1.581,4.527,3.851,4.527l2.1-0.001 c2.269,0,3.85-2.386,3.85-4.528V28.393 M47,26v8.651c0,1.349-1,3.128-2.45,3.128l-2.1,0.001C41,37.779,40,36,40,34.652v-8.651 c-3.823,1.659-7.161,5.512-6.992,9.956c0.154,4.044,2.418,7.557,5.992,9.134v23.8C39,71.151,41.166,73,43.447,73h0.108 C45.835,73,48,71.151,48,68.891V45.097c3.705-1.61,6.001-5.271,6-9.543C54.001,31.281,50.708,27.609,47,26L47,26z"/></g><g><path fill="#fff" d="M43.5,69.486L43.5,69.486c-0.825,0-1.5-0.675-1.5-1.5l0,0c0-0.825,0.675-1.5,1.5-1.5l0,0 c0.825,0,1.5,0.675,1.5,1.5l0,0C45,68.811,44.325,69.486,43.5,69.486z"/><path fill="#472b29" d="M43.5,69.736c-0.965,0-1.75-0.785-1.75-1.75s0.785-1.75,1.75-1.75s1.75,0.785,1.75,1.75 S44.465,69.736,43.5,69.736z M43.5,66.736c-0.689,0-1.25,0.561-1.25,1.25s0.561,1.25,1.25,1.25s1.25-0.561,1.25-1.25 S44.189,66.736,43.5,66.736z"/></g><g><path fill="#f37e98" d="M60.501,72.3c-0.206,0-0.415-0.011-0.626-0.034c-2.38-0.265-4.175-2.098-4.175-4.263V52.7h9.6 v15.436c0,1.091-0.489,2.125-1.379,2.911C63.008,71.855,61.793,72.3,60.501,72.3L60.501,72.3z"/><path fill="#472b29" d="M64.6,53.4v14.735c0,1.91-1.839,3.465-4.099,3.465c-0.181,0-0.366-0.01-0.548-0.031 c-2.025-0.225-3.552-1.758-3.552-3.567V53.4H64.6 M66,52H55v16.003c0,2.443,2.003,4.648,4.798,4.958 C60.035,72.987,60.269,73,60.501,73C63.525,73,66,70.811,66,68.135V52L66,52z"/></g><g><path fill="#8f9eb6" d="M58.533 34.877L56.796 33.779 58.466 26.7 62.534 26.7 64.209 33.801 62.659 34.877z"/><path fill="#472b29" d="M61.98,27.4l1.438,6.098l-0.979,0.68h-3.703l-1.145-0.724L59.02,27.4H61.98 M63.088,26h-5.177 L56,34.104l2.331,1.474h4.547L65,34.104L63.088,26L63.088,26z"/></g><g><path fill="#ef5390" d="M58.667,68.5h-0.333c-0.459,0-0.833-0.365-0.833-0.813V56.313c0-0.447,0.375-0.813,0.833-0.813 h0.333c0.459,0,0.833,0.365,0.833,0.813v11.375C59.5,68.135,59.125,68.5,58.667,68.5z"/><path fill="#472b29" d="M58.667,68.75h-0.334c-0.597,0-1.083-0.477-1.083-1.063V56.313c0-0.586,0.486-1.063,1.083-1.063 h0.334c0.597,0,1.083,0.477,1.083,1.063v11.375C59.75,68.273,59.264,68.75,58.667,68.75z M58.333,55.75 c-0.321,0-0.583,0.252-0.583,0.563v11.375c0,0.311,0.262,0.563,0.583,0.563h0.334c0.321,0,0.583-0.252,0.583-0.563V56.313 c0-0.311-0.262-0.563-0.583-0.563H58.333z"/></g><g><path fill="#ef5390" d="M62.667,68.5h-0.333c-0.459,0-0.833-0.365-0.833-0.813V56.313c0-0.447,0.375-0.813,0.833-0.813 h0.333c0.459,0,0.833,0.365,0.833,0.813v11.375C63.5,68.135,63.125,68.5,62.667,68.5z"/><path fill="#472b29" d="M62.667,68.75h-0.334c-0.597,0-1.083-0.477-1.083-1.063V56.313c0-0.586,0.486-1.063,1.083-1.063 h0.334c0.597,0,1.083,0.477,1.083,1.063v11.375C63.75,68.273,63.264,68.75,62.667,68.75z M62.333,55.75 c-0.321,0-0.583,0.252-0.583,0.563v11.375c0,0.311,0.262,0.563,0.583,0.563h0.334c0.321,0,0.583-0.252,0.583-0.563V56.313 c0-0.311-0.262-0.563-0.583-0.563H62.333z"/></g><g><path fill="#472b29" d="M42.5,55.75c-0.138,0-0.25-0.112-0.25-0.25v-11c0-0.138,0.112-0.25,0.25-0.25s0.25,0.112,0.25,0.25 v11C42.75,55.638,42.638,55.75,42.5,55.75z"/></g><g><path fill="#472b29" d="M42.5,60.75c-0.138,0-0.25-0.112-0.25-0.25v-3c0-0.138,0.112-0.25,0.25-0.25s0.25,0.112,0.25,0.25v3 C42.75,60.638,42.638,60.75,42.5,60.75z"/></g><g><path fill="#472b29" d="M42.5,64.75c-0.138,0-0.25-0.112-0.25-0.25v-2c0-0.138,0.112-0.25,0.25-0.25s0.25,0.112,0.25,0.25v2 C42.75,64.638,42.638,64.75,42.5,64.75z"/></g></svg>