<svg xmlns="http://www.w3.org/2000/svg" xmlns:xlink="http://www.w3.org/1999/xlink" viewBox="0 0 100 100"><circle cx="13" cy="29" r="2" fill="#78a0cf"/><circle cx="77" cy="13" r="1" fill="#f1bc19"/><circle cx="50" cy="50" r="37" fill="#cee1f4"/><circle cx="83" cy="15" r="4" fill="#f1bc19"/><circle cx="87" cy="24" r="2" fill="#78a0cf"/><circle cx="81" cy="76" r="2" fill="#fbcd59"/><circle cx="15" cy="63" r="4" fill="#fbcd59"/><circle cx="25" cy="87" r="2" fill="#78a0cf"/><circle cx="20.5" cy="41.5" r="2.5" fill="#fff"/><circle cx="21" cy="67" r="1" fill="#f1bc19"/><circle cx="80" cy="34" r="1" fill="#fff"/><g><path fill="#f1bc19" d="M50,76.3c-12.296,0-22.3-10.003-22.3-22.3S37.704,31.7,50,31.7S72.3,41.704,72.3,54 S62.296,76.3,50,76.3z M50,36.3c-9.76,0-17.7,7.94-17.7,17.7S40.24,71.7,50,71.7S67.7,63.76,67.7,54S59.76,36.3,50,36.3z"/><path fill="#472b29" d="M50,32.4c11.91,0,21.6,9.69,21.6,21.6S61.91,75.6,50,75.6S28.4,65.91,28.4,54S38.09,32.4,50,32.4 M50,72.4c10.146,0,18.4-8.254,18.4-18.4S60.146,35.6,50,35.6S31.6,43.854,31.6,54S39.854,72.4,50,72.4 M50,31 c-12.703,0-23,10.297-23,23s10.297,23,23,23s23-10.297,23-23S62.703,31,50,31L50,31z M50,71c-9.389,0-17-7.611-17-17 s7.611-17,17-17s17,7.611,17,17S59.389,71,50,71L50,71z"/><polygon fill="#c0e5e4" points="53,23 47,23 46,27 54,27"/><polygon fill="#fff" points="47,23 43,23 41,27 46,27"/><polygon fill="#c0e5e4" points="51.454,34 53.999,27 41,27 46.727,34"/><polygon fill="#00a5a5" points="53.272,34 58.999,27 46,27 48.545,34"/><polygon fill="#77cbd2" points="53,23 57,23 59,27 54,27"/><polygon fill="#83ccb7" points="51.454,34 53.999,27 46,27 48.545,34"/><path fill="#472b29" d="M53.272,34.5c-0.111,0-0.223-0.037-0.316-0.113c-0.214-0.175-0.246-0.49-0.071-0.704l5.522-6.75 L56.691,23.5H43.309l-1.717,3.434l5.522,6.75c0.175,0.213,0.143,0.528-0.071,0.704c-0.214,0.174-0.529,0.143-0.704-0.071l-5.728-7 c-0.125-0.152-0.148-0.364-0.06-0.54l2-4C42.638,22.607,42.811,22.5,43,22.5h14c0.189,0,0.362,0.107,0.447,0.276l2,4 c0.088,0.176,0.064,0.388-0.06,0.54l-5.728,7C53.561,34.438,53.417,34.5,53.272,34.5z"/><path fill="#472b29" d="M43.5,27.75h-2c-0.138,0-0.25-0.112-0.25-0.25s0.112-0.25,0.25-0.25h2 c0.138,0,0.25,0.112,0.25,0.25S43.638,27.75,43.5,27.75z"/><path fill="#472b29" d="M58.5,27.75H45.708c-0.138,0-0.25-0.112-0.25-0.25s0.112-0.25,0.25-0.25H58.5 c0.138,0,0.25,0.112,0.25,0.25S58.638,27.75,58.5,27.75z"/><path fill="#472b29" d="M48.667,34.396c-0.103,0-0.199-0.063-0.235-0.166l-0.968-2.699c-0.046-0.13,0.021-0.273,0.151-0.32 c0.13-0.045,0.273,0.021,0.32,0.151l0.968,2.699c0.046,0.13-0.021,0.273-0.151,0.32C48.723,34.391,48.694,34.396,48.667,34.396z"/><path fill="#472b29" d="M47.312,30.618c-0.103,0-0.199-0.063-0.235-0.166l-0.627-1.749c-0.046-0.13,0.021-0.273,0.151-0.32 c0.131-0.045,0.273,0.021,0.32,0.151l0.627,1.749c0.046,0.13-0.021,0.273-0.151,0.32C47.369,30.613,47.34,30.618,47.312,30.618z"/><path fill="#472b29" d="M46.229,26.667c-0.02,0-0.04-0.002-0.06-0.007c-0.134-0.033-0.216-0.169-0.183-0.303l0.813-3.271 c0.034-0.133,0.167-0.215,0.303-0.183c0.134,0.033,0.216,0.169,0.183,0.303l-0.813,3.271 C46.443,26.59,46.341,26.667,46.229,26.667z"/><path fill="#472b29" d="M51.438,34.375c-0.03,0-0.061-0.005-0.09-0.017c-0.129-0.05-0.193-0.195-0.144-0.323l1.946-5.039 c0.05-0.129,0.195-0.193,0.323-0.144c0.129,0.05,0.193,0.195,0.144,0.323l-1.946,5.039C51.632,34.314,51.538,34.375,51.438,34.375 z"/><g><path fill="#472b29" d="M54.125,27.417c-0.11,0-0.211-0.073-0.241-0.185l-1.063-3.917 c-0.036-0.133,0.042-0.271,0.176-0.307c0.136-0.036,0.271,0.043,0.307,0.176l1.063,3.917c0.036,0.133-0.042,0.271-0.176,0.307 C54.168,27.414,54.146,27.417,54.125,27.417z"/></g></g></svg>