<svg xmlns="http://www.w3.org/2000/svg" xmlns:xlink="http://www.w3.org/1999/xlink" viewBox="0 0 100 100"><path fill="#f1bc19" d="M77 12A1 1 0 1 0 77 14A1 1 0 1 0 77 12Z"/><path fill="#e6edb7" d="M50 13A37 37 0 1 0 50 87A37 37 0 1 0 50 13Z"/><path fill="#f1bc19" d="M83 11A4 4 0 1 0 83 19A4 4 0 1 0 83 11Z"/><path fill="#88ae45" d="M87 22A2 2 0 1 0 87 26A2 2 0 1 0 87 22Z"/><path fill="#fbcd59" d="M81 74A2 2 0 1 0 81 78 2 2 0 1 0 81 74zM15 59A4 4 0 1 0 15 67 4 4 0 1 0 15 59z"/><path fill="#88ae45" d="M25 85A2 2 0 1 0 25 89A2 2 0 1 0 25 85Z"/><path fill="#fff" d="M18.5 49A2.5 2.5 0 1 0 18.5 54 2.5 2.5 0 1 0 18.5 49zM79.5 32A1.5 1.5 0 1 0 79.5 35 1.5 1.5 0 1 0 79.5 32z"/><path fill="#77cbd2" d="M29.635,68.652c-4.736-4.736-4.72-12.457,0.036-17.213l21.768-21.768 c4.756-4.756,12.477-4.772,17.213-0.036l0.712,0.712c4.736,4.736,4.72,12.457-0.036,17.213L47.561,69.329 c-4.756,4.756-12.477,4.772-17.213,0.036L29.635,68.652z"/><path fill="#f4989e" d="M40.906,40.204L29.671,51.439c-4.756,4.756-4.772,12.477-0.036,17.213l0.712,0.712 c4.736,4.736,12.457,4.72,17.213-0.036l11.235-11.235L40.906,40.204z"/><path fill="#472b29" d="M47.898,64.075c-0.128,0-0.256-0.049-0.354-0.146c-0.195-0.195-0.195-0.512,0-0.707l5.804-5.804 c0.195-0.195,0.512-0.195,0.707,0s0.195,0.512,0,0.707l-5.804,5.804C48.154,64.026,48.026,64.075,47.898,64.075z"/><g><path fill="#472b29" d="M30.418,59.063c-0.03,0-0.06-0.003-0.09-0.008c-0.271-0.05-0.452-0.31-0.403-0.581 c0.315-1.742,1.146-3.328,2.402-4.584c0.195-0.195,0.512-0.195,0.707,0s0.195,0.512,0,0.707c-1.111,1.111-1.847,2.514-2.125,4.055 C30.865,58.895,30.654,59.063,30.418,59.063z"/></g><g><path fill="#472b29" d="M38.976,69.21c-2.222,0-4.442-0.846-6.134-2.537l-0.515-0.515c-0.927-0.928-1.616-2.02-2.048-3.246 c-0.092-0.261,0.045-0.546,0.306-0.638s0.547,0.046,0.638,0.306c0.382,1.084,0.991,2.05,1.812,2.871l0.515,0.515 c2.992,2.992,7.861,2.992,10.854,0c0.195-0.195,0.512-0.195,0.707,0s0.195,0.512,0,0.707C43.418,68.364,41.197,69.21,38.976,69.21z"/></g><g><path fill="#472b29" d="M58.906,52.669c-0.128,0-0.256-0.049-0.354-0.146c-0.195-0.195-0.195-0.512,0-0.707l4.736-4.736 c0.195-0.195,0.512-0.195,0.707,0s0.195,0.512,0,0.707l-4.736,4.736C59.162,52.62,59.034,52.669,58.906,52.669z"/></g><g><path fill="#472b29" d="M66.592,44.984c-0.128,0-0.256-0.049-0.354-0.146c-0.195-0.195-0.195-0.512,0-0.707 c2.015-2.016,2.685-5.047,1.706-7.723c-0.095-0.26,0.039-0.547,0.298-0.642c0.261-0.094,0.547,0.04,0.642,0.298 c1.11,3.04,0.35,6.484-1.938,8.773C66.848,44.936,66.72,44.984,66.592,44.984z"/></g><g><path fill="#472b29" d="M49.5,50c-0.128,0-0.256-0.049-0.354-0.146l-2.097-2.097c-0.195-0.195-0.195-0.512,0-0.707 s0.512-0.195,0.707,0l2.097,2.097c0.195,0.195,0.195,0.512,0,0.707C49.756,49.951,49.628,50,49.5,50z"/></g><g><path fill="#472b29" d="M57.886,58.386c-0.128,0-0.256-0.049-0.354-0.146l-6.289-6.289c-0.195-0.195-0.195-0.512,0-0.707 s0.512-0.195,0.707,0l6.289,6.289c0.195,0.195,0.195,0.512,0,0.707C58.142,58.337,58.014,58.386,57.886,58.386z"/></g><g><path fill="#472b29" d="M45.307,45.807c-0.128,0-0.256-0.049-0.354-0.146l-4.192-4.192c-0.195-0.195-0.195-0.512,0-0.707 s0.512-0.195,0.707,0l4.192,4.192c0.195,0.195,0.195,0.512,0,0.707C45.563,45.758,45.435,45.807,45.307,45.807z"/></g><g><path fill="#472b29" d="M68.874,30.839c4.466,4.466,4.451,11.748-0.034,16.233L47.072,68.84 c-4.485,4.485-11.767,4.5-16.233,0.034l-0.712-0.712c-4.466-4.466-4.451-11.748,0.034-16.233L51.928,30.16 c4.485-4.485,11.767-4.5,16.233-0.034L68.874,30.839 M69.856,29.856l-0.712-0.712c-5.014-5.014-13.159-4.996-18.194,0.038 L29.182,50.95c-5.035,5.035-5.052,13.18-0.038,18.194l0.712,0.712c5.014,5.014,13.159,4.996,18.194-0.038L69.818,48.05 C74.853,43.015,74.87,34.87,69.856,29.856L69.856,29.856z"/></g></svg>