<svg xmlns="http://www.w3.org/2000/svg" xmlns:xlink="http://www.w3.org/1999/xlink" width="512" height="512" viewBox="0 0 512 512"><path fill="#49A0AE" d="M7.9,256C7.9,119,119,7.9,256,7.9C393,7.9,504.1,119,504.1,256c0,137-111.1,248.1-248.1,248.1C119,504.1,7.9,393,7.9,256z"/><path fill="#EDB20F" d="M388.2,139.7c-19.6,1.3-37.1,0.1-52.4-2.7c-53.8-9.8-80.7-38.5-81.5-39.4c0-0.1,0-0.1,0-0.1l-0.1,0.1l-0.1-0.1c0,0,0,0.1,0,0.1c-1.2,1.3-49.4,52.8-147.1,40.9c0,111.9,0,144.9,0,144.9c-0.6,9.4,5.2,32.8,22.9,59.6c6.5,9.9,14.6,20.2,24.6,30.4c23.1,23.7,56.3,46.9,103,63.3c139.1-59,143.9-153.3,143.9-153.3s0-33,0-144.9C396.9,139,392.5,139.4,388.2,139.7z"/><path fill="#FFC50B" d="M254.3,97.6c0-0.1,0-0.1,0-0.1L254.3,97.6l-0.1-0.1c0,0,0,0.1,0,0.1c-1.2,1.3-49.4,52.8-147.1,40.9c0,111.9,0,144.9,0,144.9c-0.6,9.4,5.2,32.8,22.9,59.6c6.5,9.9,14.6,20.2,24.6,30.4c23.1,23.7,56.3,46.9,103,63.3C257.5,436.7,255.2,98.5,254.3,97.6z"/><path fill="#FFF800" d="M254.6 187.3L278.1 234.9 330.7 242.6 292.6 279.6 301.6 332 254.6 307.3 207.6 332 216.6 279.6 178.6 242.6 231.1 234.9z"/></svg>